<?xml version="1.0" encoding="UTF-8"?>
<svg id="Livello_1" data-name="Livello 1" xmlns="http://www.w3.org/2000/svg" viewBox="0 0 115.8 115.8">
  <defs>
    <style>
      .cls-1 {
        fill: #fff;
        stroke: #fff;
        stroke-miterlimit: 10;
        stroke-width: 2.53px;
      }
    </style>
  </defs>
  <circle cx="57.9" cy="57.9" r="57.9"/>
  <g>
    <path class="cls-1" d="M82.6,63.75c-2.89,0-9.69-3.66-12.85-5.45l-.24-.13.23-.15c.56-.37,1.56-1.19,1.99-2.46.11-.32.36-1.07.02-1.62-.25-.41-.73-.53-1.3-.63-1.77-.32-3.28-.29-4.01-.28h-.1c-.95.03-1.31.01-1.66,0-.35-.01-.68-.02-1.56,0,0,0-.71.01-1.75.08h-.06s-.05-.03-.05-.03c-1.38-.9-2.6-1.72-3.73-2.5-11.71-8.09-20.53-16.03-20.97-18.89-.05-.33,0-.59.16-.8,1.33-1.69,9.51,2.32,16.72,6.64,3.09,1.84,6.29,3.9,9.49,6.12,2.89,2,5.66,4.03,8.21,6.02,4.18,3.25,7.59,6.24,9.86,8.65,2.41,2.56,3.33,4.25,2.73,5.02h0c-.22.28-.62.41-1.15.41ZM70.15,58.13c8.83,4.99,12.7,5.82,13.34,5,.22-.28.39-1.3-2.71-4.59-2.26-2.4-5.65-5.38-9.82-8.61-2.55-1.99-5.31-4.01-8.2-6.01-3.2-2.21-6.39-4.27-9.47-6.11-10.12-6.07-15.47-7.75-16.28-6.73-.1.13-.13.31-.1.54.42,2.73,9.37,10.76,20.82,18.67,1.11.77,2.32,1.57,3.67,2.46,1.02-.06,1.7-.07,1.71-.07.89-.03,1.22-.01,1.58,0,.34.01.7.02,1.64,0h.1c.74-.02,2.27-.05,4.07.28.62.12,1.2.26,1.52.79.42.68.13,1.57.02,1.9-.4,1.21-1.29,2.03-1.9,2.48Z"/>
    <path class="cls-1" d="M60.68,94.38H26.77l.34-.29c26.65-23.04,40.52-34.79,42.43-35.94.03-.02.11-.07.21-.14l.08-.05.09.05c8.99,5.1,12.93,5.95,13.57,5.13.22-.28.39-1.29-2.71-4.59-2.26-2.4-5.65-5.38-9.82-8.61-2.55-1.99-5.31-4.01-8.2-6.01-3.2-2.21-6.39-4.27-9.47-6.11-10.12-6.07-15.47-7.75-16.28-6.73-.1.13-.13.31-.1.54.42,2.73,9.37,10.76,20.82,18.67,1.13.77,2.34,1.59,3.72,2.49l.42.27-.5.03c-.71.05-2.14.15-3.74.35-2.96.37-14.34,2.17-30.39,5l-.2.03V21.43h58.3c2.47,0,4.61.4,6.36,1.18h0c8.28,3.65,6.32,14.6,6.3,14.71l-.36,35.99c0,6.4-1.83,9.63-6.33,11.13-1.92.63-4.39.95-7.55.96h-22.11s-2.18-.16-3.24.86c-.41.4-.61.94-.58,1.6,0,1.65.92,3.81,2.65,6.25l.19.26ZM27.66,94.04h32.37c-1.68-2.42-2.53-4.5-2.53-6.18-.03-.75.2-1.38.69-1.85,1.17-1.12,3.39-.96,3.48-.95h22.09c3.12-.01,5.56-.32,7.44-.94,4.33-1.45,6.1-4.59,6.1-10.82l.37-36.02c.02-.14,1.93-10.83-6.11-14.37h0c-1.71-.76-3.8-1.15-6.22-1.15H27.38v36.33c15.95-2.81,27.26-4.6,30.21-4.97,1.3-.16,2.48-.27,3.26-.32-1.21-.8-2.3-1.53-3.31-2.22-11.71-8.09-20.53-16.03-20.97-18.89-.05-.33,0-.59.16-.8,1.33-1.69,9.51,2.32,16.72,6.64,3.09,1.84,6.29,3.9,9.49,6.12,2.89,2,5.66,4.03,8.21,6.02,4.18,3.25,7.59,6.24,9.86,8.65,2.41,2.56,3.33,4.25,2.73,5.02-1.41,1.8-10.13-2.85-13.92-5-.06.04-.1.07-.13.08-1.88,1.14-15.64,12.79-42.05,35.62Z"/>
  </g>
</svg>